<?xml version="1.0" standalone="no"?>
<!DOCTYPE svg PUBLIC "-//W3C//DTD SVG 20010904//EN"
 "http://www.w3.org/TR/2001/REC-SVG-20010904/DTD/svg10.dtd">
<svg version="1.0" xmlns="http://www.w3.org/2000/svg"
 width="700.000000pt" height="700.000000pt" viewBox="0 0 700.000000 700.000000"
 preserveAspectRatio="xMidYMid meet">
<metadata>
Created by potrace 1.11, written by Peter Selinger 2001-2013
</metadata>
<g transform="translate(0.000000,700.000000) scale(0.100000,-0.100000)"
fill="#000000" stroke="none">
<path d="M340 6993 c-54 -10 -169 -74 -215 -120 -28 -28 -63 -79 -84 -123
l-36 -75 -2 -1345 c-2 -897 1 -1360 8 -1390 33 -145 146 -266 290 -311 63 -20
85 -21 1389 -21 729 0 1340 3 1358 6 111 21 244 121 295 222 51 101 49 52 49
1464 0 1449 3 1384 -58 1488 -57 98 -163 176 -275 201 -43 10 -2664 14 -2719
4z"/>
<path d="M3909 6981 c-61 -20 -149 -74 -190 -118 -36 -39 -85 -129 -99 -183
-10 -34 -13 -368 -13 -1365 0 -726 3 -1336 6 -1355 4 -19 7 -38 7 -43 -1 -4
16 -39 36 -78 55 -105 136 -172 259 -214 46 -16 151 -17 1380 -17 997 0 1341
3 1375 12 159 42 274 156 316 313 20 76 20 2667 0 2742 -34 128 -114 223 -236
283 l-75 37 -1355 2 c-1271 1 -1358 0 -1411 -16z"/>
<path d="M370 3387 c-169 -20 -320 -158 -359 -328 -7 -29 -10 -505 -8 -1389
l2 -1345 32 -68 c44 -94 119 -169 213 -215 l75 -37 1370 0 1370 0 76 36 c122
59 198 147 234 273 16 55 17 167 17 1385 0 1000 -3 1337 -12 1371 -30 112
-118 223 -217 273 -100 51 -54 50 -1433 51 -712 0 -1324 -2 -1360 -7z"/>
<path d="M3982 3388 c-170 -19 -323 -156 -363 -323 -13 -57 -18 -2622 -5
-2710 25 -164 173 -315 341 -346 58 -11 2686 -8 2723 3 143 43 258 153 301
290 19 61 20 95 20 1393 0 1441 2 1386 -54 1481 -55 94 -152 170 -254 200 -51
15 -178 17 -1351 18 -712 0 -1324 -2 -1358 -6z"/>
</g>
</svg>
